<svg width="498" height="184" viewBox="0 0 498 184" fill="none" xmlns="http://www.w3.org/2000/svg">
<path d="M135.25 37.75C139.583 46.5833 141.75 56.4167 141.75 67.25C141.75 78.0833 139.583 87.9167 135.25 96.75C130.917 105.417 125.333 112.333 118.5 117.5C104.667 128.167 90.3333 133.5 75.5 133.5H44.25V161.75C44.25 165.583 44.0833 168.5 43.75 170.5C43.5833 172.333 42.8333 174.5 41.5 177C39.1667 181.5 32.6667 183.75 22 183.75C10.3333 183.75 3.5 180.667 1.5 174.5C0.500001 171.667 7.07805e-07 167.333 7.07805e-07 161.5V22.75C7.07805e-07 18.9167 0.0833339 16.0833 0.25 14.25C0.583334 12.25 1.41667 9.99999 2.75 7.49999C5.08333 2.99999 11.5833 0.74999 22.25 0.74999H75.75C90.4167 0.74999 104.667 6.08332 118.5 16.75C125.333 21.9167 130.917 28.9167 135.25 37.75ZM75.75 89.25C80.75 89.25 85.6667 87.4167 90.5 83.75C95.3333 80.0833 97.75 74.5833 97.75 67.25C97.75 59.9167 95.3333 54.4167 90.5 50.75C85.6667 46.9167 80.6667 45 75.5 45H44.25V89.25H75.75ZM193.459 139.75H270.459C274.292 139.75 277.126 139.917 278.959 140.25C280.959 140.417 283.209 141.167 285.709 142.5C290.209 144.833 292.459 151.333 292.459 162C292.459 173.667 289.376 180.5 283.209 182.5C280.376 183.5 276.042 184 270.209 184H171.209C159.542 184 152.709 180.833 150.709 174.5C149.709 171.833 149.209 167.583 149.209 161.75V22.75C149.209 14.25 150.792 8.49999 153.959 5.49999C157.126 2.33332 163.126 0.74999 171.959 0.74999H270.459C274.292 0.74999 277.126 0.916659 278.959 1.25C280.959 1.41666 283.209 2.16666 285.709 3.49998C290.209 5.83333 292.459 12.3333 292.459 23C292.459 34.6667 289.376 41.5 283.209 43.5C280.376 44.5 276.042 45 270.209 45H193.459V70.25H242.959C246.792 70.25 249.626 70.4167 251.459 70.75C253.459 70.9167 255.709 71.6667 258.209 73C262.709 75.3333 264.959 81.8333 264.959 92.5C264.959 104.167 261.792 111 255.459 113C252.626 114 248.292 114.5 242.459 114.5H193.459V139.75ZM494.633 7.74999C495.966 10.25 496.716 12.5 496.883 14.5C497.216 16.5 497.383 19.4167 497.383 23.25V162C497.383 173.5 494.216 180.25 487.883 182.25C484.716 183.25 480.716 183.75 475.883 183.75C471.049 183.75 467.216 183.333 464.383 182.5C461.549 181.667 459.383 180.667 457.883 179.5C456.383 178.333 455.216 176.667 454.383 174.5C453.549 171.667 453.133 167.333 453.133 161.5V77.75C448.966 82.9167 442.883 91.1667 434.883 102.5C426.883 113.667 421.799 120.667 419.633 123.5C417.466 126.333 415.966 128.333 415.133 129.5C414.299 130.5 412.216 132 408.883 134C405.716 135.833 402.216 136.75 398.383 136.75C394.716 136.75 391.299 135.917 388.133 134.25C385.133 132.417 382.966 130.667 381.633 129L379.633 126.25C376.299 122.083 369.716 113.25 359.883 99.75C350.049 86.0833 344.716 78.75 343.883 77.75V162C343.883 165.833 343.716 168.75 343.383 170.75C343.216 172.583 342.466 174.667 341.133 177C338.633 181.5 332.133 183.75 321.633 183.75C311.466 183.75 305.133 181.5 302.633 177C301.299 174.667 300.466 172.5 300.133 170.5C299.966 168.5 299.883 165.5 299.883 161.5V22.75C299.883 18.9167 299.966 16.0833 300.133 14.25C300.466 12.25 301.299 9.99999 302.633 7.49999C305.133 3.16666 311.633 0.999987 322.133 0.999987C326.633 0.999987 330.466 1.58332 333.633 2.74999C336.966 3.74999 339.133 4.83333 340.133 6L341.633 7.49999L398.383 82C426.716 44.5 445.633 19.75 455.133 7.74999C457.966 3.24999 464.633 0.999987 475.133 0.999987C485.799 0.999987 492.299 3.24999 494.633 7.74999Z" fill="url(#paint0_linear_74_2)"/>
<defs>
<linearGradient id="paint0_linear_74_2" x1="-97.2873" y1="91.5002" x2="609.597" y2="91.5001" gradientUnits="userSpaceOnUse">
<stop stop-color="#1AA7EC"/>
<stop offset="1" stop-color="#1E2F97"/>
</linearGradient>
</defs>
</svg>
